# xmcd
#
# Track frame offsets: 
#        150
#        11577
#        25161
#        35955
#        49124
#        63016
#        74640
#        86651
#        100229
#        113421
#
# Disc length: 1672 seconds
#
# Revision: 0
# Processed by: cddbd v1.5.1PL2 Copyright (c) Steve Scherf et al.
# Submitted via: ExactAudioCopy v0.90b4
#
DISCID=7f06860a
DTITLE=Robert Johnson - Standin' At The Crossroads
DYEAR=2006
DGENRE=Blues
TTITLE0=Cross Road Blues
TTITLE1=I Belive I'll Dust My Broom
TTITLE2=Love In Vain
TTITLE3=Ramblin' on My Mind
TTITLE4=Terraplane Blues
TTITLE5=Walkin' Blues
TTITLE6=If I Had Possession Over Judgement Day
TTITLE7=Sweet Home Chicago
TTITLE8=Preachin' Blues (Up Jumped The Devil)
TTITLE9=Hell Hound On My Trail
EXTD=
EXTT0=
EXTT1=
EXTT2=
EXTT3=
EXTT4=
EXTT5=
EXTT6=
EXTT7=
EXTT8=
EXTT9=
PLAYORDER=
